<?xml version="1.0" encoding="utf-8"?>
<!-- Generator: Adobe Illustrator 19.0.0, SVG Export Plug-In . SVG Version: 6.00 Build 0)  -->
<svg version="1.1" id="Layer_1" xmlns="http://www.w3.org/2000/svg" xmlns:xlink="http://www.w3.org/1999/xlink" x="0px" y="0px"
	 viewBox="-377 615.3 663 187" style="enable-background:new -377 615.3 663 187;" xml:space="preserve">
<style type="text/css">
	.st0{fill:url(#XMLID_2_);}
	.st1{fill:url(#XMLID_5_);}
	.st2{fill:#FFFFFF;}
</style>
<linearGradient id="XMLID_2_" gradientUnits="userSpaceOnUse" x1="-359.9" y1="710.99" x2="-240.5" y2="710.99" gradientTransform="matrix(1 0 0 -1 0 1417.9601)">
	<stop  offset="0" style="stop-color:#FFB75E"/>
	<stop  offset="1.118878e-002" style="stop-color:#FEB559"/>
	<stop  offset="8.095490e-002" style="stop-color:#F9A93E"/>
	<stop  offset="0.1612" style="stop-color:#F49F28"/>
	<stop  offset="0.2549" style="stop-color:#F19817"/>
	<stop  offset="0.3708" style="stop-color:#EF930C"/>
	<stop  offset="0.5333" style="stop-color:#ED9005"/>
	<stop  offset="0.9845" style="stop-color:#ED8F03"/>
</linearGradient>
<polygon id="XMLID_26_" class="st0" points="-240.5,690.3 -295.2,755.2 -299.8,760.5 -324.2,789.5 -317.1,760.8 -307.8,723.7 
	-359.9,723.7 -305.2,658.8 -276.2,624.4 -292.6,690.3 "/>
<linearGradient id="XMLID_5_" gradientUnits="userSpaceOnUse" x1="-359.9" y1="710.94" x2="-240.5" y2="710.94" gradientTransform="matrix(1 0 0 -1 0 1417.9601)">
	<stop  offset="0" style="stop-color:#FFB75E"/>
	<stop  offset="0.2059" style="stop-color:#FCB151"/>
	<stop  offset="0.5867" style="stop-color:#F6A22F"/>
	<stop  offset="1" style="stop-color:#ED8F03"/>
</linearGradient>
<path id="XMLID_25_" class="st1" d="M-240.5,690.3l-52.1,61.8l-2.6,3.1l3.6-14.7c2.1-8.6-4.3-16.8-13.2-16.8h-55.1l54.8-64.9
	l-3.7,14.7c-2.2,8.5,4.3,16.8,13.1,16.8H-240.5z"/>
<polygon id="XMLID_23_" class="st2" points="-276.2,624.4 -294.6,690.3 -292.6,690.3 "/>
<polygon id="XMLID_19_" class="st2" points="-324.2,789.5 -305.3,723.7 -307.8,723.7 "/>
<path id="XMLID_18_" class="st2" d="M-289.1,742.7l-3.6,9.4l-2.6,3.1l3.6-14.7c2.1-8.6-4.3-16.8-13.2-16.8h-55l56.4-1.5
	C-292.8,721.9-285.2,732.6-289.1,742.7z"/>
<path id="XMLID_14_" class="st2" d="M-311.4,671.3l3.6-9.4l2.6-3.1l-3.6,14.7c-2.2,8.5,4.3,16.8,13.1,16.8h55.2l-56.4,1.5
	C-307.6,692.1-315.2,681.3-311.4,671.3z"/>
<g id="XMLID_3_">
	<path id="XMLID_4_" class="st2" d="M-149,686.5c-0.4-3.8-2.2-6.7-5.3-8.8c-3.1-2.1-6.9-3.1-11.6-3.1c-3.3,0-6.2,0.5-8.7,1.6
		c-2.4,1-4.3,2.5-5.7,4.3c-1.3,1.8-2,3.9-2,6.2c0,1.9,0.5,3.6,1.4,5c0.9,1.4,2.1,2.6,3.6,3.5c1.5,0.9,3.1,1.7,4.8,2.3
		c1.7,0.6,3.4,1.1,5,1.5l8,2.1c2.6,0.6,5.3,1.5,8,2.6c2.7,1.1,5.3,2.5,7.6,4.3c2.3,1.8,4.2,4,5.7,6.6c1.4,2.6,2.2,5.8,2.2,9.4
		c0,4.6-1.2,8.7-3.6,12.3c-2.4,3.6-5.8,6.4-10.3,8.5s-9.9,3.1-16.3,3.1c-6.1,0-11.4-1-15.8-2.9c-4.4-1.9-7.9-4.7-10.5-8.3
		c-2.5-3.6-3.9-7.8-4.2-12.7h12.3c0.2,2.9,1.2,5.4,2.9,7.3c1.7,1.9,3.8,3.4,6.5,4.3c2.6,0.9,5.5,1.4,8.7,1.4c3.5,0,6.6-0.5,9.3-1.7
		c2.7-1.1,4.9-2.6,6.4-4.6c1.6-2,2.3-4.3,2.3-6.9c0-2.4-0.7-4.4-2-5.9c-1.4-1.5-3.2-2.8-5.5-3.8s-4.9-1.9-7.9-2.7l-9.6-2.6
		c-6.5-1.8-11.7-4.4-15.5-7.8s-5.7-8-5.7-13.7c0-4.7,1.3-8.8,3.8-12.3s6-6.2,10.3-8.2c4.3-1.9,9.3-2.9,14.7-2.9
		c5.5,0,10.4,1,14.6,2.9c4.2,1.9,7.6,4.6,10,8c2.4,3.4,3.7,7.3,3.8,11.6L-149,686.5L-149,686.5z"/>
	<path id="XMLID_6_" class="st2" d="M-97.2,685.4v9.5h-33.4v-9.5H-97.2z M-121.6,670.8h11.9v57.8c0,2.3,0.3,4,1,5.2s1.6,1.9,2.7,2.3
		c1.1,0.4,2.3,0.6,3.6,0.6c1,0,1.8-0.1,2.5-0.2c0.7-0.1,1.3-0.2,1.7-0.3l2.1,9.8c-0.7,0.3-1.7,0.5-2.9,0.8c-1.3,0.3-2.9,0.4-4.8,0.5
		c-3.1,0.1-6-0.5-8.8-1.7c-2.7-1.2-4.9-3-6.6-5.4c-1.7-2.4-2.5-5.5-2.5-9.2L-121.6,670.8L-121.6,670.8z"/>
	<path id="XMLID_10_" class="st2" d="M-87.4,746.5v-61.1h11.5v9.7h0.6c1.1-3.3,3.1-5.9,5.9-7.8c2.8-1.9,6-2.8,9.6-2.8
		c0.7,0,1.6,0,2.6,0.1s1.8,0.1,2.4,0.2v11.4c-0.5-0.1-1.3-0.3-2.5-0.5c-1.2-0.2-2.4-0.3-3.7-0.3c-2.8,0-5.3,0.6-7.5,1.8
		s-3.9,2.8-5.2,4.9c-1.3,2.1-1.9,4.4-1.9,7.1v37.3L-87.4,746.5L-87.4,746.5z"/>
	<path id="XMLID_12_" class="st2" d="M-24.2,747.8c-5.7,0-10.7-1.3-15-3.9c-4.3-2.6-7.6-6.3-9.9-11c-2.4-4.7-3.5-10.2-3.5-16.5
		c0-6.3,1.2-11.9,3.5-16.6c2.4-4.7,5.7-8.4,9.9-11.1c4.3-2.6,9.3-3.9,15-3.9s10.7,1.3,15,3.9c4.3,2.6,7.6,6.3,9.9,11.1
		c2.4,4.7,3.5,10.3,3.5,16.6c0,6.3-1.2,11.8-3.5,16.5c-2.4,4.7-5.7,8.4-9.9,11C-13.5,746.5-18.5,747.8-24.2,747.8z M-42.5,750.1
		l-6.6-4.5L-6,682.4l6.6,4.5L-42.5,750.1z M-24.2,737.8c3.7,0,6.8-1,9.2-3s4.2-4.6,5.4-7.9c1.2-3.3,1.8-6.8,1.8-10.7
		c0-3.9-0.6-7.5-1.8-10.8c-1.2-3.3-3-5.9-5.4-7.9s-5.5-3-9.2-3s-6.8,1-9.3,3s-4.3,4.6-5.4,7.9c-1.2,3.3-1.8,6.9-1.8,10.8
		c0,3.9,0.6,7.5,1.8,10.7c1.2,3.3,3,5.9,5.4,7.9C-31,736.8-27.9,737.8-24.2,737.8z"/>
	<path id="XMLID_17_" class="st2" d="M14.1,746.5v-61.1h11.4v9.9h0.8c1.3-3.4,3.4-6,6.2-7.9c2.9-1.9,6.3-2.8,10.4-2.8
		s7.5,1,10.3,2.9c2.8,1.9,4.8,4.5,6.1,7.9h0.6c1.5-3.3,3.8-5.9,7-7.8s7-2.9,11.4-2.9c5.5,0,10.1,1.7,13.6,5.2s5.3,8.7,5.3,15.7v41
		H85.3v-39.9c0-4.1-1.1-7.1-3.4-9c-2.3-1.9-4.9-2.8-8.1-2.8c-3.9,0-6.9,1.2-9,3.6c-2.1,2.4-3.2,5.4-3.2,9.1v38.9H49.7v-40.6
		c0-3.3-1-6-3.1-8s-4.8-3-8.1-3c-2.3,0-4.3,0.6-6.2,1.8c-1.9,1.2-3.4,2.8-4.6,4.9c-1.2,2.1-1.7,4.5-1.7,7.3v37.7L14.1,746.5
		L14.1,746.5z"/>
	<path id="XMLID_21_" class="st2" d="M118.2,708.3v38.2h-7.1v-61.1h6.9v9.6h0.6c1.4-3.1,3.7-5.6,6.7-7.5c3-1.9,6.8-2.8,11.3-2.8
		c4.1,0,7.7,0.9,10.8,2.6s5.5,4.2,7.3,7.5c1.7,3.3,2.6,7.4,2.6,12.2v39.6h-7.1v-39.2c0-5-1.4-9-4.2-11.9c-2.8-2.9-6.5-4.4-11.2-4.4
		c-3.2,0-6.1,0.7-8.6,2.1c-2.5,1.4-4.5,3.4-5.9,5.9C118.9,701.7,118.2,704.8,118.2,708.3z"/>
	<path id="XMLID_24_" class="st2" d="M197.3,747.8c-5.7,0-10.6-1.3-14.8-4s-7.4-6.4-9.6-11.1c-2.3-4.7-3.4-10.2-3.4-16.4
		s1.1-11.6,3.4-16.4c2.3-4.8,5.4-8.5,9.4-11.3c4-2.7,8.7-4.1,13.9-4.1c3.3,0,6.5,0.6,9.6,1.8s5.8,3,8.3,5.5s4.4,5.6,5.8,9.3
		c1.4,3.8,2.1,8.2,2.1,13.3v3.5h-47.7v-6.2h40.5c0-3.9-0.8-7.5-2.4-10.6c-1.6-3.1-3.8-5.6-6.6-7.5c-2.8-1.8-6-2.7-9.7-2.7
		c-3.9,0-7.3,1-10.2,3.1s-5.2,4.8-6.9,8.2c-1.7,3.4-2.5,7.1-2.5,11.1v3.7c0,4.9,0.8,9.1,2.5,12.7c1.7,3.6,4.1,6.4,7.2,8.4
		c3.1,2,6.8,3,11,3c2.9,0,5.4-0.5,7.6-1.4c2.2-0.9,4-2.1,5.5-3.6s2.6-3.2,3.4-5l6.7,2.2c-0.9,2.6-2.4,4.9-4.6,7.1
		c-2.1,2.2-4.7,3.9-7.9,5.2C205,747.1,201.4,747.8,197.3,747.8z"/>
	<path id="XMLID_28_" class="st2" d="M258.4,685.4v6.2h-29.2v-6.2H258.4z M238.3,670.8h7.1v59.8c0,2.5,0.4,4.5,1.3,6
		c0.9,1.4,2,2.5,3.4,3.1c1.4,0.6,2.9,0.9,4.5,0.9c0.9,0,1.7-0.1,2.4-0.2c0.7-0.1,1.2-0.2,1.8-0.4l1.5,6.4c-0.7,0.3-1.5,0.5-2.5,0.7
		s-2.3,0.3-3.7,0.3c-2.6,0-5.1-0.6-7.5-1.7c-2.4-1.1-4.4-2.8-5.9-5.1s-2.3-5.1-2.3-8.4L238.3,670.8L238.3,670.8z"/>
</g>
</svg>
